{"asset":{"version":"2.0","generator":"THREE.GLTFExporter r185"},"scenes":[{"name":"AuxScene","nodes":[0]}],"scene":0,"nodes":[{"name":"original-black-canister-auxiliary-reactor","children":[1,2,3,4,5,6,7,8,9,10,11,12,13,14,15,16,17,18,19,20,21,22,23,24,25,26]},{"matrix":[1,0,0,0,0,1,0,0,0,0,1,0,0,1.45,0,1],"mesh":0},{"matrix":[1,0,0,0,0,2.220446049250313e-16,1,0,0,-1,2.220446049250313e-16,0,0,0.55,0,1],"mesh":1},{"matrix":[1,0,0,0,0,2.220446049250313e-16,1,0,0,-1,2.220446049250313e-16,0,0,1.25,0,1],"mesh":2},{"matrix":[1,0,0,0,0,2.220446049250313e-16,1,0,0,-1,2.220446049250313e-16,0,0,1.95,0,1],"mesh":3},{"matrix":[1,0,0,0,0,2.220446049250313e-16,1,0,0,-1,2.220446049250313e-16,0,0,2.55,0,1],"mesh":4},{"matrix":[0.75,0,0,0,0,3.108624468950438e-16,1.4,0,0,-0.75,1.6653345369377348e-16,0,0.83,1.5,0,1],"mesh":5},{"matrix":[1,0,0,0,0,1,0,0,0,0,1,0,1.1,1.45,0,1],"mesh":6},{"matrix":[-0.375,0.6495190528383291,-1.249000902703301e-16,0,0,0,1.4,0,0.6495190528383291,0.37499999999999994,-1.6653345369377348e-16,0,-0.4149999999999998,1.5,0.7188010851410841,1],"mesh":7},{"matrix":[1,0,0,0,0,1,0,0,0,0,1,0,-0.5499999999999998,1.45,0.9526279441628827,1],"mesh":8},{"matrix":[-0.375,-0.6495190528383287,1.249000902703301e-16,0,0,6.217248937900876e-16,1.3999999999999997,0,-0.6495190528383286,0.37500000000000017,1.6653345369377348e-16,0,-0.41500000000000037,1.5,-0.7188010851410839,1],"mesh":9},{"matrix":[1,0,0,0,0,1,0,0,0,0,1,0,-0.5500000000000005,1.45,-0.9526279441628824,1],"mesh":10},{"matrix":[1,0,0,0,0,1,0,0,0,0,1,0,0,3,0,1],"mesh":11},{"matrix":[1,0,0,0,0,1,0,0,0,0,1,0,0,3.32,0,1],"mesh":12},{"matrix":[1,0,0,0,0,1,0,0,0,0,1,0,0.44,3.32,0,1],"mesh":13},{"matrix":[0.7071067811865475,0.7071067811865476,0,0,-0.7071067811865476,0.7071067811865475,0,0,0,0,1,0,0.3111269837220809,3.32,0.31112698372208086,1],"mesh":14},{"matrix":[2.220446049250313e-16,1,0,0,-1,2.220446049250313e-16,0,0,0,0,1,0,2.694222958124177e-17,3.32,0.44,1],"mesh":15},{"matrix":[-0.7071067811865475,0.7071067811865477,0,0,-0.7071067811865477,-0.7071067811865475,0,0,0,0,1,0,-0.31112698372208086,3.32,0.3111269837220809,1],"mesh":16},{"matrix":[-1,1.2246467991473532e-16,0,0,-1.2246467991473532e-16,-1,0,0,0,0,1,0,-0.44,3.32,5.388445916248354e-17,1],"mesh":17},{"matrix":[-0.7071067811865475,-0.7071067811865475,0,0,0.7071067811865475,-0.7071067811865475,0,0,0,0,1,0,-0.311126983722081,3.32,-0.31112698372208086,1],"mesh":18},{"matrix":[-2.220446049250313e-16,-1,0,0,1,-2.220446049250313e-16,0,0,0,0,1,0,-8.08266887437253e-17,3.32,-0.44,1],"mesh":19},{"matrix":[0.7071067811865474,-0.7071067811865477,0,0,0.7071067811865477,0.7071067811865474,0,0,0,0,1,0,0.31112698372208086,3.32,-0.311126983722081,1],"mesh":20},{"matrix":[1,0,0,0,0,1,0,0,0,0,1,0,0,0.2,0,1],"name":"armored-reactor-base","mesh":21},{"matrix":[1,0,0,0,0,1,0,0,0,0,1,0,-0.56,0,-0.56,1],"mesh":22},{"matrix":[1,0,0,0,0,1,0,0,0,0,1,0,-0.56,0,0.56,1],"mesh":23},{"matrix":[1,0,0,0,0,1,0,0,0,0,1,0,0.56,0,-0.56,1],"mesh":24},{"matrix":[1,0,0,0,0,1,0,0,0,0,1,0,0.56,0,0.56,1],"mesh":25}],"bufferViews":[{"buffer":0,"byteOffset":0,"byteLength":10296,"target":34962,"byteStride":12},{"buffer":0,"byteOffset":10296,"byteLength":10296,"target":34962,"byteStride":12},{"buffer":0,"byteOffset":20592,"byteLength":6864,"target":34962,"byteStride":8},{"buffer":0,"byteOffset":27456,"byteLength":9600,"target":34963},{"buffer":0,"byteOffset":37056,"byteLength":6708,"target":34962,"byteStride":12},{"buffer":0,"byteOffset":43764,"byteLength":6708,"target":34962,"byteStride":12},{"buffer":0,"byteOffset":50472,"byteLength":4472,"target":34962,"byteStride":8},{"buffer":0,"byteOffset":54944,"byteLength":6048,"target":34963},{"buffer":0,"byteOffset":60992,"byteLength":6708,"target":34962,"byteStride":12},{"buffer":0,"byteOffset":67700,"byteLength":6708,"target":34962,"byteStride":12},{"buffer":0,"byteOffset":74408,"byteLength":4472,"target":34962,"byteStride":8},{"buffer":0,"byteOffset":78880,"byteLength":6048,"target":34963},{"buffer":0,"byteOffset":84928,"byteLength":6708,"target":34962,"byteStride":12},{"buffer":0,"byteOffset":91636,"byteLength":6708,"target":34962,"byteStride":12},{"buffer":0,"byteOffset":98344,"byteLength":4472,"target":34962,"byteStride":8},{"buffer":0,"byteOffset":102816,"byteLength":6048,"target":34963},{"buffer":0,"byteOffset":108864,"byteLength":6708,"target":34962,"byteStride":12},{"buffer":0,"byteOffset":115572,"byteLength":6708,"target":34962,"byteStride":12},{"buffer":0,"byteOffset":122280,"byteLength":4472,"target":34962,"byteStride":8},{"buffer":0,"byteOffset":126752,"byteLength":6048,"target":34963},{"buffer":0,"byteOffset":132800,"byteLength":12804,"target":34962,"byteStride":12},{"buffer":0,"byteOffset":145604,"byteLength":12804,"target":34962,"byteStride":12},{"buffer":0,"byteOffset":158408,"byteLength":8536,"target":34962,"byteStride":8},{"buffer":0,"byteOffset":166944,"byteLength":11520,"target":34963},{"buffer":0,"byteOffset":178464,"byteLength":1200,"target":34962,"byteStride":12},{"buffer":0,"byteOffset":179664,"byteLength":1200,"target":34962,"byteStride":12},{"buffer":0,"byteOffset":180864,"byteLength":800,"target":34962,"byteStride":8},{"buffer":0,"byteOffset":181664,"byteLength":384,"target":34963},{"buffer":0,"byteOffset":182048,"byteLength":12804,"target":34962,"byteStride":12},{"buffer":0,"byteOffset":194852,"byteLength":12804,"target":34962,"byteStride":12},{"buffer":0,"byteOffset":207656,"byteLength":8536,"target":34962,"byteStride":8},{"buffer":0,"byteOffset":216192,"byteLength":11520,"target":34963},{"buffer":0,"byteOffset":227712,"byteLength":1200,"target":34962,"byteStride":12},{"buffer":0,"byteOffset":228912,"byteLength":1200,"target":34962,"byteStride":12},{"buffer":0,"byteOffset":230112,"byteLength":800,"target":34962,"byteStride":8},{"buffer":0,"byteOffset":230912,"byteLength":384,"target":34963},{"buffer":0,"byteOffset":231296,"byteLength":12804,"target":34962,"byteStride":12},{"buffer":0,"byteOffset":244100,"byteLength":12804,"target":34962,"byteStride":12},{"buffer":0,"byteOffset":256904,"byteLength":8536,"target":34962,"byteStride":8},{"buffer":0,"byteOffset":265440,"byteLength":11520,"target":34963},{"buffer":0,"byteOffset":276960,"byteLength":1200,"target":34962,"byteStride":12},{"buffer":0,"byteOffset":278160,"byteLength":1200,"target":34962,"byteStride":12},{"buffer":0,"byteOffset":279360,"byteLength":800,"target":34962,"byteStride":8},{"buffer":0,"byteOffset":280160,"byteLength":384,"target":34963},{"buffer":0,"byteOffset":280544,"byteLength":2352,"target":34962,"byteStride":12},{"buffer":0,"byteOffset":282896,"byteLength":2352,"target":34962,"byteStride":12},{"buffer":0,"byteOffset":285248,"byteLength":1568,"target":34962,"byteStride":8},{"buffer":0,"byteOffset":286816,"byteLength":768,"target":34963},{"buffer":0,"byteOffset":287584,"byteLength":8316,"target":34962,"byteStride":12},{"buffer":0,"byteOffset":295900,"byteLength":8316,"target":34962,"byteStride":12},{"buffer":0,"byteOffset":304216,"byteLength":5544,"target":34962,"byteStride":8},{"buffer":0,"byteOffset":309760,"byteLength":7296,"target":34963},{"buffer":0,"byteOffset":317056,"byteLength":768,"target":34962,"byteStride":12},{"buffer":0,"byteOffset":317824,"byteLength":768,"target":34962,"byteStride":12},{"buffer":0,"byteOffset":318592,"byteLength":512,"target":34962,"byteStride":8},{"buffer":0,"byteOffset":319104,"byteLength":240,"target":34963},{"buffer":0,"byteOffset":319344,"byteLength":768,"target":34962,"byteStride":12},{"buffer":0,"byteOffset":320112,"byteLength":768,"target":34962,"byteStride":12},{"buffer":0,"byteOffset":320880,"byteLength":512,"target":34962,"byteStride":8},{"buffer":0,"byteOffset":321392,"byteLength":240,"target":34963},{"buffer":0,"byteOffset":321632,"byteLength":768,"target":34962,"byteStride":12},{"buffer":0,"byteOffset":322400,"byteLength":768,"target":34962,"byteStride":12},{"buffer":0,"byteOffset":323168,"byteLength":512,"target":34962,"byteStride":8},{"buffer":0,"byteOffset":323680,"byteLength":240,"target":34963},{"buffer":0,"byteOffset":323920,"byteLength":768,"target":34962,"byteStride":12},{"buffer":0,"byteOffset":324688,"byteLength":768,"target":34962,"byteStride":12},{"buffer":0,"byteOffset":325456,"byteLength":512,"target":34962,"byteStride":8},{"buffer":0,"byteOffset":325968,"byteLength":240,"target":34963},{"buffer":0,"byteOffset":326208,"byteLength":768,"target":34962,"byteStride":12},{"buffer":0,"byteOffset":326976,"byteLength":768,"target":34962,"byteStride":12},{"buffer":0,"byteOffset":327744,"byteLength":512,"target":34962,"byteStride":8},{"buffer":0,"byteOffset":328256,"byteLength":240,"target":34963},{"buffer":0,"byteOffset":328496,"byteLength":768,"target":34962,"byteStride":12},{"buffer":0,"byteOffset":329264,"byteLength":768,"target":34962,"byteStride":12},{"buffer":0,"byteOffset":330032,"byteLength":512,"target":34962,"byteStride":8},{"buffer":0,"byteOffset":330544,"byteLength":240,"target":34963},{"buffer":0,"byteOffset":330784,"byteLength":768,"target":34962,"byteStride":12},{"buffer":0,"byteOffset":331552,"byteLength":768,"target":34962,"byteStride":12},{"buffer":0,"byteOffset":332320,"byteLength":512,"target":34962,"byteStride":8},{"buffer":0,"byteOffset":332832,"byteLength":240,"target":34963},{"buffer":0,"byteOffset":333072,"byteLength":768,"target":34962,"byteStride":12},{"buffer":0,"byteOffset":333840,"byteLength":768,"target":34962,"byteStride":12},{"buffer":0,"byteOffset":334608,"byteLength":512,"target":34962,"byteStride":8},{"buffer":0,"byteOffset":335120,"byteLength":240,"target":34963},{"buffer":0,"byteOffset":335360,"byteLength":2640,"target":34962,"byteStride":12},{"buffer":0,"byteOffset":338000,"byteLength":2640,"target":34962,"byteStride":12},{"buffer":0,"byteOffset":340640,"byteLength":1760,"target":34962,"byteStride":8},{"buffer":0,"byteOffset":342400,"byteLength":864,"target":34963},{"buffer":0,"byteOffset":343264,"byteLength":1056,"target":34962,"byteStride":12},{"buffer":0,"byteOffset":344320,"byteLength":1056,"target":34962,"byteStride":12},{"buffer":0,"byteOffset":345376,"byteLength":704,"target":34962,"byteStride":8},{"buffer":0,"byteOffset":346080,"byteLength":336,"target":34963},{"buffer":0,"byteOffset":346416,"byteLength":1056,"target":34962,"byteStride":12},{"buffer":0,"byteOffset":347472,"byteLength":1056,"target":34962,"byteStride":12},{"buffer":0,"byteOffset":348528,"byteLength":704,"target":34962,"byteStride":8},{"buffer":0,"byteOffset":349232,"byteLength":336,"target":34963},{"buffer":0,"byteOffset":349568,"byteLength":1056,"target":34962,"byteStride":12},{"buffer":0,"byteOffset":350624,"byteLength":1056,"target":34962,"byteStride":12},{"buffer":0,"byteOffset":351680,"byteLength":704,"target":34962,"byteStride":8},{"buffer":0,"byteOffset":352384,"byteLength":336,"target":34963},{"buffer":0,"byteOffset":352720,"byteLength":1056,"target":34962,"byteStride":12},{"buffer":0,"byteOffset":353776,"byteLength":1056,"target":34962,"byteStride":12},{"buffer":0,"byteOffset":354832,"byteLength":704,"target":34962,"byteStride":8},{"buffer":0,"byteOffset":355536,"byteLength":336,"target":34963}],"buffers":[{"byteLength":355872,"uri":"data:application/octet-stream;base64,"}],"accessors":[{"bufferView":0,"componentType":5126,"count":858,"max":[0.7200000286102295,1.5449999570846558,0.7200000286102295],"min":[-0.7200000286102295,-1.5449999570846558,-0.7200000286102295],"type":"VEC3"},{"bufferView":1,"componentType":5126,"count":858,"max":[1,1,1],"min":[-1,-1,-1],"type":"VEC3"},{"bufferView":2,"componentType":5126,"count":858,"max":[1.015625,1],"min":[-0.015625,0],"type":"VEC2"},{"bufferView":3,"componentType":5123,"count":4800,"max":[857],"min":[0],"type":"SCALAR"},{"bufferView":4,"componentType":5126,"count":559,"max":[0.8349999785423279,0.8326651453971863,0.07500000298023224],"min":[-0.8349999785423279,-0.8326651453971863,-0.07500000298023224],"type":"VEC3"},{"bufferView":5,"componentType":5126,"count":559,"max":[1,0.9972038269042969,1],"min":[-1,-0.9972038269042969,-1],"type":"VEC3"},{"bufferView":6,"componentType":5126,"count":559,"max":[1,1],"min":[0,0],"type":"VEC2"},{"bufferView":7,"componentType":5123,"count":3024,"max":[558],"min":[0],"type":"SCALAR"},{"bufferView":8,"componentType":5126,"count":559,"max":[0.8349999785423279,0.8326651453971863,0.07500000298023224],"min":[-0.8349999785423279,-0.8326651453971863,-0.07500000298023224],"type":"VEC3"},{"bufferView":9,"componentType":5126,"count":559,"max":[1,0.9972038269042969,1],"min":[-1,-0.9972038269042969,-1],"type":"VEC3"},{"bufferView":10,"componentType":5126,"count":559,"max":[1,1],"min":[0,0],"type":"VEC2"},{"bufferView":11,"componentType":5123,"count":3024,"max":[558],"min":[0],"type":"SCALAR"},{"bufferView":12,"componentType":5126,"count":559,"max":[0.8349999785423279,0.8326651453971863,0.07500000298023224],"min":[-0.8349999785423279,-0.8326651453971863,-0.07500000298023224],"type":"VEC3"},{"bufferView":13,"componentType":5126,"count":559,"max":[1,0.9972038269042969,1],"min":[-1,-0.9972038269042969,-1],"type":"VEC3"},{"bufferView":14,"componentType":5126,"count":559,"max":[1,1],"min":[0,0],"type":"VEC2"},{"bufferView":15,"componentType":5123,"count":3024,"max":[558],"min":[0],"type":"SCALAR"},{"bufferView":16,"componentType":5126,"count":559,"max":[0.8349999785423279,0.8326651453971863,0.07500000298023224],"min":[-0.8349999785423279,-0.8326651453971863,-0.07500000298023224],"type":"VEC3"},{"bufferView":17,"componentType":5126,"count":559,"max":[1,0.9972038269042969,1],"min":[-1,-0.9972038269042969,-1],"type":"VEC3"},{"bufferView":18,"componentType":5126,"count":559,"max":[1,1],"min":[0,0],"type":"VEC2"},{"bufferView":19,"componentType":5123,"count":3024,"max":[558],"min":[0],"type":"SCALAR"},{"bufferView":20,"componentType":5126,"count":1067,"max":[0.45699289441108704,0.44513753056526184,0.18633770942687988],"min":[-0.42136457562446594,-0.4448607265949249,-0.18642562627792358],"type":"VEC3"},{"bufferView":21,"componentType":5126,"count":1067,"max":[0.9998806118965149,0.9988443851470947,0.9893604516983032],"min":[-0.9998806118965149,-0.9988443851470947,-0.9893604516983032],"type":"VEC3"},{"bufferView":22,"componentType":5126,"count":1067,"max":[1,1],"min":[0,0],"type":"VEC2"},{"bufferView":23,"componentType":5123,"count":5760,"max":[1066],"min":[0],"type":"SCALAR"},{"bufferView":24,"componentType":5126,"count":100,"max":[0.06499999761581421,0.8999999761581421,0.06499999761581421],"min":[-0.06499999761581421,-0.8999999761581421,-0.06499999761581421],"type":"VEC3"},{"bufferView":25,"componentType":5126,"count":100,"max":[1,1,1],"min":[-1,-1,-1],"type":"VEC3"},{"bufferView":26,"componentType":5126,"count":100,"max":[1,1],"min":[0,0],"type":"VEC2"},{"bufferView":27,"componentType":5123,"count":192,"max":[99],"min":[0],"type":"SCALAR"},{"bufferView":28,"componentType":5126,"count":1067,"max":[0.45699289441108704,0.44513753056526184,0.18633770942687988],"min":[-0.42136457562446594,-0.4448607265949249,-0.18642562627792358],"type":"VEC3"},{"bufferView":29,"componentType":5126,"count":1067,"max":[0.9998806118965149,0.9988443851470947,0.9893604516983032],"min":[-0.9998806118965149,-0.9988443851470947,-0.9893604516983032],"type":"VEC3"},{"bufferView":30,"componentType":5126,"count":1067,"max":[1,1],"min":[0,0],"type":"VEC2"},{"bufferView":31,"componentType":5123,"count":5760,"max":[1066],"min":[0],"type":"SCALAR"},{"bufferView":32,"componentType":5126,"count":100,"max":[0.06499999761581421,0.8999999761581421,0.06499999761581421],"min":[-0.06499999761581421,-0.8999999761581421,-0.06499999761581421],"type":"VEC3"},{"bufferView":33,"componentType":5126,"count":100,"max":[1,1,1],"min":[-1,-1,-1],"type":"VEC3"},{"bufferView":34,"componentType":5126,"count":100,"max":[1,1],"min":[0,0],"type":"VEC2"},{"bufferView":35,"componentType":5123,"count":192,"max":[99],"min":[0],"type":"SCALAR"},{"bufferView":36,"componentType":5126,"count":1067,"max":[0.45699289441108704,0.44513753056526184,0.18633770942687988],"min":[-0.42136457562446594,-0.4448607265949249,-0.18642562627792358],"type":"VEC3"},{"bufferView":37,"componentType":5126,"count":1067,"max":[0.9998806118965149,0.9988443851470947,0.9893604516983032],"min":[-0.9998806118965149,-0.9988443851470947,-0.9893604516983032],"type":"VEC3"},{"bufferView":38,"componentType":5126,"count":1067,"max":[1,1],"min":[0,0],"type":"VEC2"},{"bufferView":39,"componentType":5123,"count":5760,"max":[1066],"min":[0],"type":"SCALAR"},{"bufferView":40,"componentType":5126,"count":100,"max":[0.06499999761581421,0.8999999761581421,0.06499999761581421],"min":[-0.06499999761581421,-0.8999999761581421,-0.06499999761581421],"type":"VEC3"},{"bufferView":41,"componentType":5126,"count":100,"max":[1,1,1],"min":[-1,-1,-1],"type":"VEC3"},{"bufferView":42,"componentType":5126,"count":100,"max":[1,1],"min":[0,0],"type":"VEC2"},{"bufferView":43,"componentType":5123,"count":192,"max":[99],"min":[0],"type":"SCALAR"},{"bufferView":44,"componentType":5126,"count":196,"max":[0.7200000286102295,0.20999999344348907,0.7200000286102295],"min":[-0.7200000286102295,-0.20999999344348907,-0.7200000286102295],"type":"VEC3"},{"bufferView":45,"componentType":5126,"count":196,"max":[0.8858315348625183,1,0.8858315348625183],"min":[-0.8858315348625183,-1,-0.8858315348625183],"type":"VEC3"},{"bufferView":46,"componentType":5126,"count":196,"max":[1,1],"min":[0,0],"type":"VEC2"},{"bufferView":47,"componentType":5123,"count":384,"max":[195],"min":[0],"type":"SCALAR"},{"bufferView":48,"componentType":5126,"count":693,"max":[0.41999998688697815,0.41999998688697815,0.41999998688697815],"min":[-0.41999998688697815,-0.41999998688697815,-0.41999998688697815],"type":"VEC3"},{"bufferView":49,"componentType":5126,"count":693,"max":[1,1,1],"min":[-1,-1,-1],"type":"VEC3"},{"bufferView":50,"componentType":5126,"count":693,"max":[1.015625,1],"min":[-0.015625,0],"type":"VEC2"},{"bufferView":51,"componentType":5123,"count":3648,"max":[692],"min":[0],"type":"SCALAR"},{"bufferView":52,"componentType":5126,"count":64,"max":[0.03328697755932808,0.3700000047683716,0.03500000014901161],"min":[-0.03328697755932808,-0.3700000047683716,-0.03500000014901161],"type":"VEC3"},{"bufferView":53,"componentType":5126,"count":64,"max":[0.9510565400123596,1,1],"min":[-0.9510565400123596,-1,-1],"type":"VEC3"},{"bufferView":54,"componentType":5126,"count":64,"max":[1,1],"min":[0,0],"type":"VEC2"},{"bufferView":55,"componentType":5123,"count":120,"max":[63],"min":[0],"type":"SCALAR"},{"bufferView":56,"componentType":5126,"count":64,"max":[0.03328697755932808,0.3700000047683716,0.03500000014901161],"min":[-0.03328697755932808,-0.3700000047683716,-0.03500000014901161],"type":"VEC3"},{"bufferView":57,"componentType":5126,"count":64,"max":[0.9510565400123596,1,1],"min":[-0.9510565400123596,-1,-1],"type":"VEC3"},{"bufferView":58,"componentType":5126,"count":64,"max":[1,1],"min":[0,0],"type":"VEC2"},{"bufferView":59,"componentType":5123,"count":120,"max":[63],"min":[0],"type":"SCALAR"},{"bufferView":60,"componentType":5126,"count":64,"max":[0.03328697755932808,0.3700000047683716,0.03500000014901161],"min":[-0.03328697755932808,-0.3700000047683716,-0.03500000014901161],"type":"VEC3"},{"bufferView":61,"componentType":5126,"count":64,"max":[0.9510565400123596,1,1],"min":[-0.9510565400123596,-1,-1],"type":"VEC3"},{"bufferView":62,"componentType":5126,"count":64,"max":[1,1],"min":[0,0],"type":"VEC2"},{"bufferView":63,"componentType":5123,"count":120,"max":[63],"min":[0],"type":"SCALAR"},{"bufferView":64,"componentType":5126,"count":64,"max":[0.03328697755932808,0.3700000047683716,0.03500000014901161],"min":[-0.03328697755932808,-0.3700000047683716,-0.03500000014901161],"type":"VEC3"},{"bufferView":65,"componentType":5126,"count":64,"max":[0.9510565400123596,1,1],"min":[-0.9510565400123596,-1,-1],"type":"VEC3"},{"bufferView":66,"componentType":5126,"count":64,"max":[1,1],"min":[0,0],"type":"VEC2"},{"bufferView":67,"componentType":5123,"count":120,"max":[63],"min":[0],"type":"SCALAR"},{"bufferView":68,"componentType":5126,"count":64,"max":[0.03328697755932808,0.3700000047683716,0.03500000014901161],"min":[-0.03328697755932808,-0.3700000047683716,-0.03500000014901161],"type":"VEC3"},{"bufferView":69,"componentType":5126,"count":64,"max":[0.9510565400123596,1,1],"min":[-0.9510565400123596,-1,-1],"type":"VEC3"},{"bufferView":70,"componentType":5126,"count":64,"max":[1,1],"min":[0,0],"type":"VEC2"},{"bufferView":71,"componentType":5123,"count":120,"max":[63],"min":[0],"type":"SCALAR"},{"bufferView":72,"componentType":5126,"count":64,"max":[0.03328697755932808,0.3700000047683716,0.03500000014901161],"min":[-0.03328697755932808,-0.3700000047683716,-0.03500000014901161],"type":"VEC3"},{"bufferView":73,"componentType":5126,"count":64,"max":[0.9510565400123596,1,1],"min":[-0.9510565400123596,-1,-1],"type":"VEC3"},{"bufferView":74,"componentType":5126,"count":64,"max":[1,1],"min":[0,0],"type":"VEC2"},{"bufferView":75,"componentType":5123,"count":120,"max":[63],"min":[0],"type":"SCALAR"},{"bufferView":76,"componentType":5126,"count":64,"max":[0.03328697755932808,0.3700000047683716,0.03500000014901161],"min":[-0.03328697755932808,-0.3700000047683716,-0.03500000014901161],"type":"VEC3"},{"bufferView":77,"componentType":5126,"count":64,"max":[0.9510565400123596,1,1],"min":[-0.9510565400123596,-1,-1],"type":"VEC3"},{"bufferView":78,"componentType":5126,"count":64,"max":[1,1],"min":[0,0],"type":"VEC2"},{"bufferView":79,"componentType":5123,"count":120,"max":[63],"min":[0],"type":"SCALAR"},{"bufferView":80,"componentType":5126,"count":64,"max":[0.03328697755932808,0.3700000047683716,0.03500000014901161],"min":[-0.03328697755932808,-0.3700000047683716,-0.03500000014901161],"type":"VEC3"},{"bufferView":81,"componentType":5126,"count":64,"max":[0.9510565400123596,1,1],"min":[-0.9510565400123596,-1,-1],"type":"VEC3"},{"bufferView":82,"componentType":5126,"count":64,"max":[1,1],"min":[0,0],"type":"VEC2"},{"bufferView":83,"componentType":5123,"count":120,"max":[63],"min":[0],"type":"SCALAR"},{"bufferView":84,"componentType":5126,"count":220,"max":[1.2200000286102295,0.17000000178813934,1.2200000286102295],"min":[-1.2200000286102295,-0.17000000178813934,-1.2200000286102295],"type":"VEC3"},{"bufferView":85,"componentType":5126,"count":220,"max":[0.9246780872344971,1,0.9246780872344971],"min":[-0.9246780872344971,-1,-0.9246780872344971],"type":"VEC3"},{"bufferView":86,"componentType":5126,"count":220,"max":[1,1],"min":[0,0],"type":"VEC2"},{"bufferView":87,"componentType":5123,"count":432,"max":[219],"min":[0],"type":"SCALAR"},{"bufferView":88,"componentType":5126,"count":88,"max":[0.12674063444137573,0.1899999976158142,0.12999999523162842],"min":[-0.12674063444137573,-0.1899999976158142,-0.12999999523162842],"type":"VEC3"},{"bufferView":89,"componentType":5126,"count":88,"max":[0.9719038009643555,1,0.9968981742858887],"min":[-0.9719038009643555,-1,-0.9968981742858887],"type":"VEC3"},{"bufferView":90,"componentType":5126,"count":88,"max":[1,1],"min":[0,0],"type":"VEC2"},{"bufferView":91,"componentType":5123,"count":168,"max":[87],"min":[0],"type":"SCALAR"},{"bufferView":92,"componentType":5126,"count":88,"max":[0.12674063444137573,0.1899999976158142,0.12999999523162842],"min":[-0.12674063444137573,-0.1899999976158142,-0.12999999523162842],"type":"VEC3"},{"bufferView":93,"componentType":5126,"count":88,"max":[0.9719038009643555,1,0.9968981742858887],"min":[-0.9719038009643555,-1,-0.9968981742858887],"type":"VEC3"},{"bufferView":94,"componentType":5126,"count":88,"max":[1,1],"min":[0,0],"type":"VEC2"},{"bufferView":95,"componentType":5123,"count":168,"max":[87],"min":[0],"type":"SCALAR"},{"bufferView":96,"componentType":5126,"count":88,"max":[0.12674063444137573,0.1899999976158142,0.12999999523162842],"min":[-0.12674063444137573,-0.1899999976158142,-0.12999999523162842],"type":"VEC3"},{"bufferView":97,"componentType":5126,"count":88,"max":[0.9719038009643555,1,0.9968981742858887],"min":[-0.9719038009643555,-1,-0.9968981742858887],"type":"VEC3"},{"bufferView":98,"componentType":5126,"count":88,"max":[1,1],"min":[0,0],"type":"VEC2"},{"bufferView":99,"componentType":5123,"count":168,"max":[87],"min":[0],"type":"SCALAR"},{"bufferView":100,"componentType":5126,"count":88,"max":[0.12674063444137573,0.1899999976158142,0.12999999523162842],"min":[-0.12674063444137573,-0.1899999976158142,-0.12999999523162842],"type":"VEC3"},{"bufferView":101,"componentType":5126,"count":88,"max":[0.9719038009643555,1,0.9968981742858887],"min":[-0.9719038009643555,-1,-0.9968981742858887],"type":"VEC3"},{"bufferView":102,"componentType":5126,"count":88,"max":[1,1],"min":[0,0],"type":"VEC2"},{"bufferView":103,"componentType":5123,"count":168,"max":[87],"min":[0],"type":"SCALAR"}],"materials":[{"pbrMetallicRoughness":{"baseColorFactor":[0.008568125615105716,0.014443843592229466,0.01764195448412081,1],"metallicFactor":0.88,"roughnessFactor":0.31}},{"pbrMetallicRoughness":{"baseColorFactor":[0.37626212298046485,0.15292615198613213,0.02121901037134225,1],"metallicFactor":0.91,"roughnessFactor":0.24}},{"pbrMetallicRoughness":{"baseColorFactor":[0.2746773120495699,0.04970656597728775,0.015208514418949472,1],"metallicFactor":0.83,"roughnessFactor":0.3}},{"pbrMetallicRoughness":{"baseColorFactor":[0.02121901037134225,0.007499032040460618,0.0033465357620980074,1],"metallicFactor":0.45,"roughnessFactor":0.32},"emissiveFactor":[1,0.14126329113044458,0.02732089163382382],"extensions":{"KHR_materials_emissive_strength":{"emissiveStrength":3.4}}}],"meshes":[{"primitives":[{"mode":4,"attributes":{"POSITION":0,"NORMAL":1,"TEXCOORD_0":2},"indices":3,"material":0}]},{"primitives":[{"mode":4,"attributes":{"POSITION":4,"NORMAL":5,"TEXCOORD_0":6},"indices":7,"material":1}]},{"primitives":[{"mode":4,"attributes":{"POSITION":8,"NORMAL":9,"TEXCOORD_0":10},"indices":11,"material":1}]},{"primitives":[{"mode":4,"attributes":{"POSITION":12,"NORMAL":13,"TEXCOORD_0":14},"indices":15,"material":1}]},{"primitives":[{"mode":4,"attributes":{"POSITION":16,"NORMAL":17,"TEXCOORD_0":18},"indices":19,"material":1}]},{"primitives":[{"mode":4,"attributes":{"POSITION":20,"NORMAL":21,"TEXCOORD_0":22},"indices":23,"material":2}]},{"primitives":[{"mode":4,"attributes":{"POSITION":24,"NORMAL":25,"TEXCOORD_0":26},"indices":27,"material":1}]},{"primitives":[{"mode":4,"attributes":{"POSITION":28,"NORMAL":29,"TEXCOORD_0":30},"indices":31,"material":2}]},{"primitives":[{"mode":4,"attributes":{"POSITION":32,"NORMAL":33,"TEXCOORD_0":34},"indices":35,"material":1}]},{"primitives":[{"mode":4,"attributes":{"POSITION":36,"NORMAL":37,"TEXCOORD_0":38},"indices":39,"material":2}]},{"primitives":[{"mode":4,"attributes":{"POSITION":40,"NORMAL":41,"TEXCOORD_0":42},"indices":43,"material":1}]},{"primitives":[{"mode":4,"attributes":{"POSITION":44,"NORMAL":45,"TEXCOORD_0":46},"indices":47,"material":1}]},{"primitives":[{"mode":4,"attributes":{"POSITION":48,"NORMAL":49,"TEXCOORD_0":50},"indices":51,"material":3}]},{"primitives":[{"mode":4,"attributes":{"POSITION":52,"NORMAL":53,"TEXCOORD_0":54},"indices":55,"material":3}]},{"primitives":[{"mode":4,"attributes":{"POSITION":56,"NORMAL":57,"TEXCOORD_0":58},"indices":59,"material":3}]},{"primitives":[{"mode":4,"attributes":{"POSITION":60,"NORMAL":61,"TEXCOORD_0":62},"indices":63,"material":3}]},{"primitives":[{"mode":4,"attributes":{"POSITION":64,"NORMAL":65,"TEXCOORD_0":66},"indices":67,"material":3}]},{"primitives":[{"mode":4,"attributes":{"POSITION":68,"NORMAL":69,"TEXCOORD_0":70},"indices":71,"material":3}]},{"primitives":[{"mode":4,"attributes":{"POSITION":72,"NORMAL":73,"TEXCOORD_0":74},"indices":75,"material":3}]},{"primitives":[{"mode":4,"attributes":{"POSITION":76,"NORMAL":77,"TEXCOORD_0":78},"indices":79,"material":3}]},{"primitives":[{"mode":4,"attributes":{"POSITION":80,"NORMAL":81,"TEXCOORD_0":82},"indices":83,"material":3}]},{"primitives":[{"mode":4,"attributes":{"POSITION":84,"NORMAL":85,"TEXCOORD_0":86},"indices":87,"material":0}]},{"primitives":[{"mode":4,"attributes":{"POSITION":88,"NORMAL":89,"TEXCOORD_0":90},"indices":91,"material":1}]},{"primitives":[{"mode":4,"attributes":{"POSITION":92,"NORMAL":93,"TEXCOORD_0":94},"indices":95,"material":1}]},{"primitives":[{"mode":4,"attributes":{"POSITION":96,"NORMAL":97,"TEXCOORD_0":98},"indices":99,"material":1}]},{"primitives":[{"mode":4,"attributes":{"POSITION":100,"NORMAL":101,"TEXCOORD_0":102},"indices":103,"material":1}]}],"extensionsUsed":["KHR_materials_emissive_strength"]}